<svg width="597" height="306" viewBox="0 0 597 306" fill="none" xmlns="http://www.w3.org/2000/svg">
<g clip-path="url(#clip0_291_112)">
<path d="M655.471 348.078C655.471 284.411 603.816 232.826 540.146 232.826H261.724H232.829C169.122 232.826 117.503 181.204 117.503 117.574L0 234.966C0 298.632 51.6551 350.218 115.325 350.218H356.032H422.642C486.349 350.218 537.968 401.84 537.968 465.47L655.471 348.041V348.078Z" fill="url(#paint0_linear_291_112)"/>
<path d="M393.856 117.392C452.626 117.392 500.469 165.169 500.469 223.938H511.323C511.323 165.205 559.13 117.392 617.936 117.392V106.545C559.13 106.545 511.287 58.7324 511.287 0H500.433C500.433 58.7324 452.626 106.545 393.82 106.545V0H235.079L117.576 117.429H393.82V117.392H393.856Z" fill="url(#paint1_linear_291_112)"/>
</g>
<defs>
<linearGradient id="paint0_linear_291_112" x1="655.471" y1="291.522" x2="0" y2="291.522" gradientUnits="userSpaceOnUse">
<stop stop-color="#E0E1E6" stop-opacity="0.6"/>
<stop offset="1" stop-color="#E0E1E6" stop-opacity="0"/>
</linearGradient>
<linearGradient id="paint1_linear_291_112" x1="617.936" y1="111.969" x2="117.576" y2="111.969" gradientUnits="userSpaceOnUse">
<stop stop-color="#E0E1E6" stop-opacity="0.6"/>
<stop offset="1" stop-color="#E0E1E6" stop-opacity="0"/>
</linearGradient>
<clipPath id="clip0_291_112">
<rect width="655.471" height="583.007" fill="white"/>
</clipPath>
</defs>
</svg>
