<svg width="532" height="342" viewBox="0 0 532 342" fill="none" xmlns="http://www.w3.org/2000/svg">
<g clip-path="url(#clip0_291_113)">
<path d="M655.471 173.816C655.471 110.15 603.816 58.5644 540.146 58.5644H261.724H232.829C169.122 58.5644 117.503 6.94229 117.503 -56.6875L0 60.7047C0 124.371 51.6551 175.957 115.325 175.957H356.032H422.642C486.349 175.957 537.968 227.579 537.968 291.209L655.471 173.78V173.816Z" fill="url(#paint0_linear_291_113)"/>
<path d="M393.856 -56.869C452.626 -56.869 500.469 -9.09224 500.469 49.6764H511.323C511.323 -9.05595 559.13 -56.869 617.936 -56.869V-67.7158C559.13 -67.7158 511.287 -115.529 511.287 -174.261H500.433C500.433 -115.529 452.626 -67.7158 393.82 -67.7158V-174.261H235.079L117.576 -56.8327H393.82V-56.869H393.856Z" fill="url(#paint1_linear_291_113)"/>
</g>
<defs>
<linearGradient id="paint0_linear_291_113" x1="655.471" y1="117.26" x2="0" y2="117.26" gradientUnits="userSpaceOnUse">
<stop stop-color="#E0E1E6" stop-opacity="0.6"/>
<stop offset="1" stop-color="#E0E1E6" stop-opacity="0"/>
</linearGradient>
<linearGradient id="paint1_linear_291_113" x1="617.936" y1="-62.2924" x2="117.576" y2="-62.2924" gradientUnits="userSpaceOnUse">
<stop stop-color="#E0E1E6" stop-opacity="0.6"/>
<stop offset="1" stop-color="#E0E1E6" stop-opacity="0"/>
</linearGradient>
<clipPath id="clip0_291_113">
<rect width="655.471" height="583.007" fill="white" transform="translate(0 -174.261)"/>
</clipPath>
</defs>
</svg>
