<svg width="999" height="899" viewBox="0 0 999 899" fill="none" xmlns="http://www.w3.org/2000/svg">
<g clip-path="url(#clip0_75_555)">
<path d="M998.5 1020.12C998.5 833.529 847.114 682.345 660.514 682.345H-155.462H-240.145C-426.851 682.345 -578.131 531.056 -578.131 344.575L-922.5 688.618C-922.5 875.205 -771.114 1026.39 -584.514 1026.39H120.927H316.144C502.851 1026.39 654.13 1177.68 654.13 1364.16L998.5 1020.01V1020.12Z" fill="url(#paint0_linear_75_555)"/>
<path d="M231.781 344.043C404.019 344.043 544.234 484.063 544.234 656.298H576.044C576.044 484.17 716.153 344.043 888.497 344.043V312.254C716.153 312.254 575.938 172.128 575.938 0H544.128C544.128 172.128 404.019 312.254 231.674 312.254V0H-233.549L-577.918 344.15H231.674V344.043H231.781Z" fill="url(#paint1_linear_75_555)"/>
</g>
<defs>
<linearGradient id="paint0_linear_75_555" x1="998.5" y1="854.367" x2="-922.5" y2="854.367" gradientUnits="userSpaceOnUse">
<stop stop-color="#E0E1E6" stop-opacity="0"/>
<stop offset="1" stop-color="#E0E1E6"/>
</linearGradient>
<linearGradient id="paint1_linear_75_555" x1="888.497" y1="328.149" x2="-577.918" y2="328.149" gradientUnits="userSpaceOnUse">
<stop stop-color="#E0E1E6" stop-opacity="0"/>
<stop offset="1" stop-color="#E0E1E6"/>
</linearGradient>
<clipPath id="clip0_75_555">
<rect width="1921" height="1708.63" fill="white" transform="translate(-922.5)"/>
</clipPath>
</defs>
</svg>
